{"asset":{"version":"2.0","generator":"zoto-viz-fixture"},"scene":0,"scenes":[{"nodes":[0]}],"nodes":[{"mesh":0}],"meshes":[{"primitives":[{"attributes":{"POSITION":0},"indices":1}]}],"buffers":[{"uri":"data:application/octet-stream;base64,","byteLength":42}],"bufferViews":[{"buffer":0,"byteOffset":0,"byteLength":36,"target":34962},{"buffer":0,"byteOffset":36,"byteLength":6,"target":34963}],"accessors":[{"bufferView":0,"componentType":5126,"count":3,"type":"VEC3","max":[0.5,0.5,0.5],"min":[-0.5,-0.5,0.0]},{"bufferView":1,"componentType":5123,"count":3,"type":"SCALAR"}]}